<?xml version="1.0" encoding="utf-8"?>
<!-- Generator: Adobe Illustrator 22.0.1, SVG Export Plug-In . SVG Version: 6.00 Build 0)  -->
<svg version="1.1" id="Layer_1" xmlns="http://www.w3.org/2000/svg" xmlns:xlink="http://www.w3.org/1999/xlink" x="0px" y="0px"
	 viewBox="0 0 791 1001" style="enable-background:new 0 0 791 1001;" xml:space="preserve">
<style type="text/css">
	.st0{fill:none;}
	.st1{fill:none;stroke:#000000;}
	.st2{font-family:'Helvetica';}
	.st3{font-size:12px;}
	.st4{fill:none;stroke:#000000;stroke-miterlimit:10;}
	.st5{stroke:#000000;stroke-miterlimit:10;}
	.st6{font-family:'MyriadPro-Regular';}
	.st7{enable-background:new    ;}
</style>
<path class="st0" d="z"/>
<g transform="translate(.5 .5)">
	<ellipse pointer-events="none" class="st1" cx="398" cy="35" rx="35" ry="20"/>
	<text transform="matrix(1 0 0 1 383.6074 40.5)" class="st2 st3">Write</text>
	<path pointer-events="none" class="st4" d="M461,140h54v165H281.4"/>
	<path pointer-events="none" class="st5" d="M276.1,305l7-3.5l-1.8,3.5l1.8,3.5L276.1,305z"/>
	<path pointer-events="none" class="st4" d="M400.5,85l60.5,55l-60.5,55L340,140L400.5,85z"/>
	<text transform="matrix(1 0 0 1 364.0225 140)"><tspan x="0" y="0" class="st6 st3">Pending Write </tspan><tspan x="14.3" y="14.4" class="st6 st3">Request?</tspan></text>
	<path pointer-events="none" class="st4" d="M275,265v33.6"/>
	<path pointer-events="none" class="st5" d="M275,303.9l-3.5-7l3.5,1.8l3.5-1.8L275,303.9z"/>
	<path pointer-events="none" class="st1" d="M215,205h120v60H215V205z"/>
	<text transform="matrix(1 0 0 1 232.3086 234.9998)" class="st7"><tspan x="0" y="0" class="st2 st3">Follow Pending </tspan><tspan x="1.3" y="14.4" class="st2 st3">Write Request?</tspan></text>
	<path pointer-events="none" class="st4" d="M340,140h-65v58.6"/>
	<path pointer-events="none" class="st5" d="M275,203.9l-3.5-7l3.5,1.8l3.5-1.8L275,203.9z"/>
	<text transform="matrix(1 0 0 1 301.3828 135.5)" class="st2 st3">True</text>
	<text transform="matrix(1 0 0 1 468.8281 135.5)" class="st2 st3">False</text>
	<path pointer-events="none" class="st4" d="M398,55h3v23.6"/>
	<path pointer-events="none" class="st5" d="M401,83.9l-3.5-7l3.5,1.8l3.5-1.8L401,83.9z"/>
	<path pointer-events="none" class="st4" d="M275,305l65,60l-65,60l-65-60L275,305z"/>
	<text transform="matrix(1 0 0 1 226.8057 370.5)" class="st2 st3">Request In Flight?</text>
	<ellipse pointer-events="none" class="st1" cx="50" cy="705" rx="35" ry="20"/>
	<text transform="matrix(1 0 0 1 27.4951 710.5)" class="st2 st3">Promise</text>
	<path pointer-events="none" class="st4" d="M210,365H50v313.6"/>
	<path pointer-events="none" class="st5" d="M50,683.9l-3.5-7l3.5,1.8l3.5-1.8L50,683.9z"/>
	<path pointer-events="none" class="st1" d="M487,335h120v60H487V335z"/>
	<path pointer-events="none" class="st4" d="M499,335v60 M595,335v60"/>
	<text transform="matrix(1 0 0 1 524.6611 361.5)" class="st7"><tspan x="0" y="0" class="st2 st3">onWrite </tspan><tspan x="-4.7" y="14.4" class="st2 st3">Sequence</tspan></text>
	<path pointer-events="none" class="st4" d="M547,505v43.6"/>
	<path pointer-events="none" class="st5" d="M547,553.9l-3.5-7l3.5,1.8l3.5-1.8L547,553.9z"/>
	<path pointer-events="none" class="st1" d="M487,445h120v60H487V445z"/>
	<text transform="matrix(1 0 0 1 490.4697 480.5)" class="st2 st3">Set Request In Flight</text>
	<path pointer-events="none" class="st4" d="M340,365h140.6"/>
	<path pointer-events="none" class="st5" d="M485.9,365l-7,3.5l1.8-3.5l-1.8-3.5L485.9,365z"/>
	<path pointer-events="none" class="st4" d="M547,395v43.6"/>
	<path pointer-events="none" class="st5" d="M547,443.9l-3.5-7l3.5,1.8l3.5-1.8L547,443.9z"/>
	<path pointer-events="none" class="st1" d="M645,825h120v60H645V825z"/>
	<text transform="matrix(1 0 0 1 680.4971 860.5)" class="st2 st3">writeImpl</text>
	<text transform="matrix(1 0 0 1 553.8232 424.5)" class="st2 st3">Resolve</text>
	<path pointer-events="none" class="st1" d="M198,905h185v80H198V905z"/>
	<path pointer-events="none" class="st4" d="M217,905v80 M364,905v80"/>
	<path pointer-events="none" class="st4" d="M705,885v80H389.4"/>
	<path pointer-events="none" class="st5" d="M384.1,965l7-3.5l-1.8,3.5l1.8,3.5L384.1,965z"/>
	<path pointer-events="none" class="st1" d="M198,665h175v80H198V665z"/>
	<path pointer-events="none" class="st4" d="M216,665v80 M355,665v80"/>
	<path pointer-events="none" class="st4" d="M198,945H50V731.4"/>
	<path pointer-events="none" class="st5" d="M50,726.1l3.5,7l-3.5-1.8l-3.5,1.8L50,726.1z"/>
	<path pointer-events="none" class="st4" d="M645,855H293V752.4"/>
	<path pointer-events="none" class="st5" d="M293,747.1l3.5,7l-3.5-1.8l-3.5,1.8L293,747.1z"/>
	<path pointer-events="none" class="st4" d="M198,705H91.4"/>
	<path pointer-events="none" class="st5" d="M86.1,705l7-3.5l-1.8,3.5l1.8,3.5L86.1,705z"/>
	<path pointer-events="none" class="st4" d="M517,395v30H415v280h-35.6"/>
	<path pointer-events="none" class="st5" d="M374.1,705l7-3.5l-1.8,3.5l1.8,3.5L374.1,705z"/>
	<text transform="matrix(1 0 0 1 446.4932 419.5)" class="st2 st3">Reject</text>
	<text transform="matrix(1 0 0 1 716.8232 919.5)" class="st2 st3">Resolve</text>
	<text transform="matrix(1 0 0 1 583.4932 849.5)" class="st2 st3">Reject</text>
	<text transform="matrix(1 0 0 1 126.3828 359.5)" class="st2 st3">True</text>
	<text transform="matrix(1 0 0 1 354.8281 359.5)" class="st2 st3">False</text>
	<path pointer-events="none" class="st4" d="M547,615v43.6"/>
	<path pointer-events="none" class="st5" d="M547,663.9l-3.5-7l3.5,1.8l3.5-1.8L547,663.9z"/>
	<path pointer-events="none" class="st1" d="M487,555h120v60H487V555z"/>
	<text transform="matrix(1 0 0 1 507.3086 585)" class="st7"><tspan x="0" y="0" class="st2 st3">Clear Pending </tspan><tspan x="6" y="14.4" class="st2 st3">Write Queue</tspan></text>
	<path pointer-events="none" class="st4" d="M612,725h87v92.6"/>
	<path pointer-events="none" class="st5" d="M699,822.9l-3.5-7l3.5,1.8l3.5-1.8L699,822.9z"/>
	<path pointer-events="none" class="st4" d="M482,725h-67v200h-25.6"/>
	<path pointer-events="none" class="st5" d="M384.1,925l7-3.5l-1.8,3.5l1.8,3.5L384.1,925z"/>
	<path pointer-events="none" class="st4" d="M547,665l65,60l-65,60l-65-60L547,665z"/>
	<text transform="matrix(1 0 0 1 498.3037 730.5)" class="st2 st3">local === remote?</text>
	<text transform="matrix(1 0 0 1 636.8281 719.5)" class="st2 st3">False</text>
	<text transform="matrix(1 0 0 1 431.3828 719.5)" class="st2 st3">True</text>
</g>
<path class="st0" d="z"/>
<text transform="matrix(1 0 0 1 256.1884 685.5002)" class="st6 st3">onWriteError:</text>
<rect x="235.3" y="700.7" class="st0" width="109.3" height="38.7"/>
<text transform="matrix(1 0 0 1 235.3333 709.1862)"><tspan x="0" y="0" class="st6 st3">•   Remove Request </tspan><tspan x="11" y="14.4" class="st6 st3">In Flight</tspan></text>
<text transform="matrix(1 0 0 1 240.6469 925.5)" class="st6 st3">afterWrite Sequence:</text>
<rect x="235.3" y="938.3" class="st0" width="109.3" height="38.7"/>
<text transform="matrix(1 0 0 1 235.3333 946.8528)"><tspan x="0" y="0" class="st6 st3">•   Remove Request </tspan><tspan x="11" y="14.4" class="st6 st3">In Flight</tspan></text>
</svg>
