<svg id="Layer_1" data-name="Layer 1" xmlns="http://www.w3.org/2000/svg" viewBox="0 0 751 989.85"><title>remoteModel_write_diagram</title><path d="M0,0" transform="translate(-15 -15)" style="fill:none"/><ellipse cx="383.5" cy="20.5" rx="35" ry="20" style="fill:none;stroke:#000"/><text transform="translate(369.11 26)" style="isolation:isolate;font-size:12px;font-family:Helvetica, Helvetica"><tspan style="letter-spacing:-0.017578125em">W</tspan><tspan x="11.12" y="0">rite</tspan></text><path d="M461.5,140.5h54v165H281.9" transform="translate(-15 -15)" style="fill:none;stroke:#000;stroke-miterlimit:10"/><path d="M276.6,305.5l7-3.5-1.8,3.5,1.8,3.5Z" transform="translate(-15 -15)" style="stroke:#000;stroke-miterlimit:10"/><path d="M401,85.5l60.5,55-60.5,55-60.5-55Z" transform="translate(-15 -15)" style="fill:none;stroke:#000;stroke-miterlimit:10"/><text transform="translate(349.52 125.5)" style="isolation:isolate;font-size:12px;font-family:MyriadPro-Regular, Myriad Pro"><tspan style="letter-spacing:-0.024983723958333332em">P</tspan><tspan x="6.08" y="0">ending</tspan><tspan x="41.7" y="0" style="letter-spacing:-0.0360107421875em"> </tspan><tspan x="43.81" y="0" style="letter-spacing:-0.0159912109375em">W</tspan><tspan x="53.77" y="0" style="letter-spacing:0.003987630208333333em">r</tspan><tspan x="57.74" y="0">i</tspan><tspan x="60.55" y="0" style="letter-spacing:-0.0059814453125em">t</tspan><tspan x="64.45" y="0" style="letter-spacing:0.000040690104166666664em">e </tspan></text><text transform="translate(363.82 139.9)" style="isolation:isolate;font-size:12px;font-family:MyriadPro-Regular, Myriad Pro"><tspan style="letter-spacing:0.003987630208333333em">R</tspan><tspan x="6.5" y="0">equest?</tspan></text><path d="M275.5,265.5v33.6" transform="translate(-15 -15)" style="fill:none;stroke:#000;stroke-miterlimit:10"/><path d="M275.5,304.4l-3.5-7,3.5,1.8,3.5-1.8Z" transform="translate(-15 -15)" style="stroke:#000;stroke-miterlimit:10"/><path d="M215.5,205.5h120v60h-120Z" transform="translate(-15 -15)" style="fill:none;stroke:#000"/><text transform="translate(217.81 220.5)" style="isolation:isolate;font-size:12px;font-family:Helvetica, Helvetica">Follow Pending </text><text transform="translate(219.11 234.9)" style="isolation:isolate;font-size:12px;font-family:Helvetica, Helvetica"><tspan style="letter-spacing:-0.017578125em">W</tspan><tspan x="11.12" y="0">rite Request?</tspan></text><path d="M340.5,140.5h-65v58.6" transform="translate(-15 -15)" style="fill:none;stroke:#000;stroke-miterlimit:10"/><path d="M275.5,204.4l-3.5-7,3.5,1.8,3.5-1.8Z" transform="translate(-15 -15)" style="stroke:#000;stroke-miterlimit:10"/><text transform="translate(286.88 121)" style="isolation:isolate;font-size:12px;font-family:Helvetica, Helvetica"><tspan style="letter-spacing:-0.03662109375em">T</tspan><tspan x="6.89" y="0">rue</tspan></text><text transform="translate(454.33 121)" style="isolation:isolate;font-size:12px;font-family:Helvetica, Helvetica">False</text><path d="M398.5,55.5h3V79.1" transform="translate(-15 -15)" style="fill:none;stroke:#000;stroke-miterlimit:10"/><path d="M401.5,84.4l-3.5-7,3.5,1.8,3.5-1.8Z" transform="translate(-15 -15)" style="stroke:#000;stroke-miterlimit:10"/><path d="M275.5,305.5l65,60-65,60-65-60Z" transform="translate(-15 -15)" style="fill:none;stroke:#000;stroke-miterlimit:10"/><text transform="translate(212.31 356)" style="isolation:isolate;font-size:12px;font-family:Helvetica, Helvetica">Request In Flight?</text><ellipse cx="35.5" cy="690.5" rx="35" ry="20" style="fill:none;stroke:#000"/><text transform="translate(13 696)" style="isolation:isolate;font-size:12px;font-family:Helvetica, Helvetica">Promise</text><path d="M210.5,365.5H50.5V679.1" transform="translate(-15 -15)" style="fill:none;stroke:#000;stroke-miterlimit:10"/><path d="M50.5,684.4l-3.5-7,3.5,1.8,3.5-1.8Z" transform="translate(-15 -15)" style="stroke:#000;stroke-miterlimit:10"/><path d="M487.5,335.5h120v60h-120Z" transform="translate(-15 -15)" style="fill:none;stroke:#000"/><path d="M499.5,335.5v60m96-60v60" transform="translate(-15 -15)" style="fill:none;stroke:#000;stroke-miterlimit:10"/><text transform="translate(510.16 347)" style="isolation:isolate;font-size:12px;font-family:Helvetica, Helvetica">on<tspan x="13.35" y="0" style="letter-spacing:-0.017578125em">W</tspan><tspan x="24.46" y="0">rite </tspan></text><text transform="translate(505.46 361.4)" style="isolation:isolate;font-size:12px;font-family:Helvetica, Helvetica">Sequence</text><path d="M547.5,505.5v43.6" transform="translate(-15 -15)" style="fill:none;stroke:#000;stroke-miterlimit:10"/><path d="M547.5,554.4l-3.5-7,3.5,1.8,3.5-1.8Z" transform="translate(-15 -15)" style="stroke:#000;stroke-miterlimit:10"/><path d="M487.5,445.5h120v60h-120Z" transform="translate(-15 -15)" style="fill:none;stroke:#000"/><text transform="translate(475.97 466)" style="isolation:isolate;font-size:12px;font-family:Helvetica, Helvetica">Set Request In Flight</text><path d="M340.5,365.5H481.1" transform="translate(-15 -15)" style="fill:none;stroke:#000;stroke-miterlimit:10"/><path d="M486.4,365.5l-7,3.5,1.8-3.5-1.8-3.5Z" transform="translate(-15 -15)" style="stroke:#000;stroke-miterlimit:10"/><path d="M547.5,395.5v43.6" transform="translate(-15 -15)" style="fill:none;stroke:#000;stroke-miterlimit:10"/><path d="M547.5,444.4l-3.5-7,3.5,1.8,3.5-1.8Z" transform="translate(-15 -15)" style="stroke:#000;stroke-miterlimit:10"/><path d="M645.5,825.5h120v60h-120Z" transform="translate(-15 -15)" style="fill:none;stroke:#000"/><text transform="translate(666 846)" style="isolation:isolate;font-size:12px;font-family:Helvetica, Helvetica">writeImpl</text><text transform="translate(539.32 410)" style="isolation:isolate;font-size:12px;font-family:Helvetica, Helvetica">Resolve</text><path d="M198.5,905.5h185v80h-185Z" transform="translate(-15 -15)" style="fill:none;stroke:#000"/><path d="M217.5,905.5v80m147-80v80" transform="translate(-15 -15)" style="fill:none;stroke:#000;stroke-miterlimit:10"/><path d="M705.5,885.5v80H389.9" transform="translate(-15 -15)" style="fill:none;stroke:#000;stroke-miterlimit:10"/><path d="M384.6,965.5l7-3.5-1.8,3.5,1.8,3.5Z" transform="translate(-15 -15)" style="stroke:#000;stroke-miterlimit:10"/><path d="M198.5,665.5h175v80h-175Z" transform="translate(-15 -15)" style="fill:none;stroke:#000"/><path d="M216.5,665.5v80m139-80v80" transform="translate(-15 -15)" style="fill:none;stroke:#000;stroke-miterlimit:10"/><path d="M198.5,945.5H50.5V731.9" transform="translate(-15 -15)" style="fill:none;stroke:#000;stroke-miterlimit:10"/><path d="M50.5,726.6l3.5,7-3.5-1.8L47,733.6Z" transform="translate(-15 -15)" style="stroke:#000;stroke-miterlimit:10"/><path d="M645.5,855.5h-352V752.9" transform="translate(-15 -15)" style="fill:none;stroke:#000;stroke-miterlimit:10"/><path d="M293.5,747.6l3.5,7-3.5-1.8-3.5,1.8Z" transform="translate(-15 -15)" style="stroke:#000;stroke-miterlimit:10"/><path d="M198.5,705.5H91.9" transform="translate(-15 -15)" style="fill:none;stroke:#000;stroke-miterlimit:10"/><path d="M86.6,705.5l7-3.5-1.8,3.5,1.8,3.5Z" transform="translate(-15 -15)" style="stroke:#000;stroke-miterlimit:10"/><path d="M517.5,395.5v30h-102v280H379.9" transform="translate(-15 -15)" style="fill:none;stroke:#000;stroke-miterlimit:10"/><path d="M374.6,705.5l7-3.5-1.8,3.5,1.8,3.5Z" transform="translate(-15 -15)" style="stroke:#000;stroke-miterlimit:10"/><text transform="translate(431.99 405)" style="isolation:isolate;font-size:12px;font-family:Helvetica, Helvetica">Reject</text><text transform="translate(702.32 905)" style="isolation:isolate;font-size:12px;font-family:Helvetica, Helvetica">Resolve</text><text transform="translate(568.99 835)" style="isolation:isolate;font-size:12px;font-family:Helvetica, Helvetica">Reject</text><text transform="translate(111.88 345)" style="isolation:isolate;font-size:12px;font-family:Helvetica, Helvetica"><tspan style="letter-spacing:-0.03662109375em">T</tspan><tspan x="6.89" y="0">rue</tspan></text><text transform="translate(340.33 345)" style="isolation:isolate;font-size:12px;font-family:Helvetica, Helvetica">False</text><path d="M547.5,615.5v43.6" transform="translate(-15 -15)" style="fill:none;stroke:#000;stroke-miterlimit:10"/><path d="M547.5,664.4l-3.5-7,3.5,1.8,3.5-1.8Z" transform="translate(-15 -15)" style="stroke:#000;stroke-miterlimit:10"/><path d="M487.5,555.5h120v60h-120Z" transform="translate(-15 -15)" style="fill:none;stroke:#000"/><text transform="translate(492.81 570.5)" style="isolation:isolate;font-size:12px;font-family:Helvetica, Helvetica">Clear Pending </text><text transform="translate(498.81 584.9)" style="isolation:isolate;font-size:12px;font-family:Helvetica, Helvetica"><tspan style="letter-spacing:-0.017578125em">W</tspan><tspan x="11.12" y="0">rite Queue</tspan></text><path d="M612.5,725.5h87v92.6" transform="translate(-15 -15)" style="fill:none;stroke:#000;stroke-miterlimit:10"/><path d="M699.5,823.4l-3.5-7,3.5,1.8,3.5-1.8Z" transform="translate(-15 -15)" style="stroke:#000;stroke-miterlimit:10"/><path d="M482.5,725.5h-67v200H389.9" transform="translate(-15 -15)" style="fill:none;stroke:#000;stroke-miterlimit:10"/><path d="M384.6,925.5l7-3.5-1.8,3.5,1.8,3.5Z" transform="translate(-15 -15)" style="stroke:#000;stroke-miterlimit:10"/><path d="M547.5,665.5l65,60-65,60-65-60Z" transform="translate(-15 -15)" style="fill:none;stroke:#000;stroke-miterlimit:10"/><text transform="translate(483.8 716)" style="isolation:isolate;font-size:12px;font-family:Helvetica, Helvetica">local === remote?</text><text transform="translate(622.33 705)" style="isolation:isolate;font-size:12px;font-family:Helvetica, Helvetica">False</text><text transform="translate(416.88 705)" style="isolation:isolate;font-size:12px;font-family:Helvetica, Helvetica"><tspan style="letter-spacing:-0.03662109375em">T</tspan><tspan x="6.89" y="0">rue</tspan></text><path d="M0,0" transform="translate(-15 -15)"/><text transform="translate(241.19 670.5)" style="isolation:isolate;font-size:12px;font-family:MyriadPro-Regular, Myriad Pro">on<tspan x="13.25" y="0" style="letter-spacing:-0.0159912109375em">W</tspan><tspan x="23.21" y="0" style="letter-spacing:0.003987630208333333em">r</tspan><tspan x="27.18" y="0">i</tspan><tspan x="29.99" y="0" style="letter-spacing:-0.0059814453125em">t</tspan><tspan x="33.89" y="0">eE</tspan><tspan x="45.8" y="0" style="letter-spacing:0.003987630208333333em">r</tspan><tspan x="49.78" y="0" style="letter-spacing:-0.009969075520833334em">r</tspan><tspan x="53.58" y="0">o</tspan><tspan x="60.17" y="0" style="letter-spacing:0.008992513020833334em">r</tspan><tspan x="64.2" y="0">:</tspan></text><rect x="220.3" y="685.7" width="109.3" height="38.7" style="fill:none"/><text transform="translate(220.33 694.19)" style="isolation:isolate;font-size:12px;font-family:MyriadPro-Regular, Myriad Pro"><tspan xml:space="preserve">•   </tspan><tspan x="11.02" y="0" style="letter-spacing:0.003987630208333333em">R</tspan><tspan x="17.52" y="0">em</tspan><tspan x="33.54" y="0" style="letter-spacing:-0.006998697916666667em">o</tspan><tspan x="40.04" y="0" style="letter-spacing:-0.010009765625em">v</tspan><tspan x="45.7" y="0" style="letter-spacing:0.000040690104166666664em">e </tspan><tspan x="54.25" y="0" style="letter-spacing:0.003987630208333333em">R</tspan><tspan x="60.75" y="0" style="letter-spacing:0.000040690104166666664em">equest </tspan></text><text transform="translate(231.33 708.59)" style="isolation:isolate;font-size:12px;font-family:MyriadPro-Regular, Myriad Pro"><tspan style="letter-spacing:0.009969075520833334em">I</tspan><tspan x="2.99" y="0">n </tspan><tspan x="12.19" y="0" style="letter-spacing:-0.017008463541666668em">F</tspan><tspan x="17.83" y="0">lig</tspan><tspan x="30.18" y="0" style="letter-spacing:-0.003987630208333333em">h</tspan><tspan x="36.79" y="0">t</tspan></text><text transform="translate(225.65 907)" style="isolation:isolate;font-size:12px;font-family:MyriadPro-Regular, Myriad Pro">a<tspan x="5.78" y="0" style="letter-spacing:0.010986328125em">f</tspan><tspan x="9.42" y="0" style="letter-spacing:-0.0059814453125em">t</tspan><tspan x="13.32" y="0">er</tspan><tspan x="23.26" y="0" style="letter-spacing:-0.0159912109375em">W</tspan><tspan x="33.22" y="0" style="letter-spacing:0.0040283203125em">r</tspan><tspan x="37.19" y="0" style="letter-spacing:-0.000040690104166666664em">i</tspan><tspan x="40" y="0" style="letter-spacing:-0.005940755208333333em">t</tspan><tspan x="43.9" y="0">e </tspan><tspan x="52.45" y="0" style="letter-spacing:0.0059814453125em">S</tspan><tspan x="58.44" y="0" style="letter-spacing:0.000040690104166666664em">equen</tspan><tspan x="90.49" y="0" style="letter-spacing:-0.006022135416666667em">c</tspan><tspan x="95.79" y="0" style="letter-spacing:0.000040690104166666664em">e:</tspan></text><rect x="218.43" y="951.15" width="109.3" height="38.7" style="fill:none"/><text transform="translate(218.27 952.5)" style="isolation:isolate;font-size:12px;font-family:MyriadPro-Regular, Myriad Pro"><tspan xml:space="preserve">•   </tspan><tspan x="11.02" y="0" style="letter-spacing:0.003987630208333333em">R</tspan><tspan x="17.52" y="0">em</tspan><tspan x="33.54" y="0" style="letter-spacing:-0.006998697916666667em">o</tspan><tspan x="40.04" y="0" style="letter-spacing:-0.010009765625em">v</tspan><tspan x="45.7" y="0" style="letter-spacing:0.000040690104166666664em">e </tspan><tspan x="54.25" y="0" style="letter-spacing:0.003987630208333333em">R</tspan><tspan x="60.75" y="0" style="letter-spacing:0.000040690104166666664em">equest </tspan></text><text transform="translate(229.27 966.9)" style="isolation:isolate;font-size:12px;font-family:MyriadPro-Regular, Myriad Pro"><tspan style="letter-spacing:0.009969075520833334em">I</tspan><tspan x="2.99" y="0">n </tspan><tspan x="12.19" y="0" style="letter-spacing:-0.017008463541666668em">F</tspan><tspan x="17.83" y="0">lig</tspan><tspan x="30.18" y="0" style="letter-spacing:-0.003987630208333333em">h</tspan><tspan x="36.79" y="0">t</tspan></text><rect x="180.3" y="807.3" width="109.3" height="38.7" style="fill:none"/><text transform="translate(217.81 923.9)" style="isolation:isolate;font-size:12px;font-family:MyriadPro-Regular, Myriad Pro"><tspan xml:space="preserve">•   Upd</tspan><tspan x="32.38" y="0" style="letter-spacing:-0.003987630208333333em">a</tspan><tspan x="38.11" y="0" style="letter-spacing:-0.0059814453125em">t</tspan><tspan x="42.01" y="0">e </tspan><tspan x="50.57" y="0" style="letter-spacing:-0.009969075520833334em">r</tspan><tspan x="54.37" y="0">emo</tspan><tspan x="76.98" y="0" style="letter-spacing:-0.0059814453125em">t</tspan><tspan x="80.88" y="0">e model </tspan></text><text transform="translate(217.81 938.3)" style="isolation:isolate;font-size:12px;font-family:MyriadPro-Regular, Myriad Pro"><tspan xml:space="preserve">     f</tspan><tspan x="16.22" y="0" style="letter-spacing:-0.009969075520833334em">r</tspan><tspan x="20.03" y="0">om local model </tspan></text><text x="-15" y="-15" style="isolation:isolate"></text><rect x="190" y="818.6" width="42.5" height="3" style="fill:none"/></svg>