<?xml version="1.0" encoding="utf-8"?>
<!-- Generator: Adobe Illustrator 16.0.4, SVG Export Plug-In . SVG Version: 6.00 Build 0)  -->
<!DOCTYPE svg PUBLIC "-//W3C//DTD SVG 1.1//EN" "http://www.w3.org/Graphics/SVG/1.1/DTD/svg11.dtd">
<svg version="1.1" id="Layer_1" xmlns="http://www.w3.org/2000/svg" xmlns:xlink="http://www.w3.org/1999/xlink" x="0px" y="0px"
	 width="17px" height="17px" viewBox="0 0 17 17" enable-background="new 0 0 17 17" xml:space="preserve">
<g>
	<path fill="#447CBF" d="M17,5.165c0,0-0.67-1.796-2.02-3.146C13.632,0.671,11.836,0,11.836,0l-2.37,2.371l5.164,5.164L17,5.165z"/>
	<polygon fill="#447CBF" points="3.25,11.216 3.755,13.25 5.81,13.777 6.323,15.841 13.644,8.521 8.479,3.356 1.158,10.679 	"/>
	<path fill="#447CBF" d="M5.028,16.599L4.622,14.96l-2.058-0.527L2.06,12.398L0.4,11.972c-0.029-0.008-0.058-0.025-0.084-0.037L0,17
		l5.067-0.314C5.052,16.656,5.036,16.628,5.028,16.599z"/>
</g>
</svg>
